<svg width="131" height="45" viewBox="0 0 131 45" fill="none" xmlns="http://www.w3.org/2000/svg">
<g clip-path="url(#clip0_853_894)">
<path d="M43.3745 13.974V20.8454C46.468 19.2211 50.255 19.0021 53.5127 20.2158C51.5052 16.4835 47.636 14.0835 43.3745 13.974ZM31.2195 25.8096C31.2195 30.1898 33.6468 34.205 37.4703 36.2582C37.0049 35.008 36.7403 33.7031 36.6947 32.3525H36.6856V7.71403L31.2195 2.24794V25.8096ZM38.7023 37.4901C40.7555 41.3136 44.7706 43.741 49.1417 43.741C55.6754 43.741 60.9864 38.43 60.9864 31.8963C60.9864 27.5161 58.5591 23.5009 54.7355 21.4477C55.2557 22.8439 55.5294 24.3131 55.5294 25.8188C55.5294 32.6902 49.9447 38.2749 43.0733 38.2749C41.5676 38.2749 40.0984 38.0103 38.7023 37.4901ZM49.1417 44.3433C44.2961 44.3433 39.8703 41.5144 37.8354 37.1251C33.5738 35.1449 30.7723 30.9198 30.6172 26.2385V0.76963L37.3061 7.45852V31.8871C37.3061 33.5479 37.6437 35.154 38.3099 36.6597C39.8156 37.3259 41.4216 37.6544 43.0824 37.6544C49.6162 37.6544 54.9272 32.3434 54.9272 25.8096C54.9272 24.1488 54.5895 22.5428 53.9234 21.0371C52.4177 20.3709 50.8116 20.0424 49.1508 20.0424C47.0702 20.0424 45.0261 20.5899 43.2284 21.6211L43.1554 21.6576H42.7631V13.3444H43.0733C47.9189 13.3444 52.3447 16.1733 54.3796 20.5626C58.7781 22.5975 61.6069 27.0233 61.6069 31.8689C61.6069 38.7403 56.0222 44.325 49.1508 44.325" fill="#BFC0C0"/>
<path d="M12.6861 7.91481C6.16147 7.91481 0.84138 13.2349 0.84138 19.7687C0.84138 24.1488 3.26873 28.164 7.09226 30.2172C6.57211 28.821 6.30748 27.3518 6.30748 25.8462C6.30748 18.9748 11.8922 13.39 18.7636 13.39C20.2693 13.39 21.7385 13.6547 23.1255 14.1748C21.0723 10.3604 17.0572 7.92393 12.6861 7.92393M25.1514 31.9145L30.6175 37.3806V25.837C30.6175 21.4569 28.1901 17.4417 24.3666 15.3885C24.832 16.6387 25.0966 17.9436 25.1422 19.2941V31.9145H25.1514ZM8.32418 31.44C10.3318 35.1723 14.21 37.5723 18.4625 37.6818V30.8104C15.3598 32.4347 11.5819 32.6537 8.32418 31.44ZM31.2289 38.8589L24.54 32.17V19.7687C24.54 18.1078 24.2023 16.5018 23.5362 14.9961C22.0305 14.3299 20.4244 13.9923 18.7636 13.9923C12.2298 13.9923 6.91888 19.3033 6.91888 25.837C6.91888 27.4978 7.25651 29.1039 7.92267 30.6096C9.42835 31.2757 11.0344 31.6043 12.6952 31.6043C14.7758 31.6043 16.8199 31.0567 18.6176 30.0256L18.6906 29.9799H19.0739V30.2902V38.2932H18.7636C13.918 38.2932 9.49223 35.4643 7.45727 31.075C3.06797 29.04 0.22998 24.6142 0.22998 19.7687C0.22998 12.8973 5.81471 7.30341 12.6861 7.30341C17.5317 7.30341 21.9575 10.1323 23.9924 14.5216C28.2631 16.5018 31.0555 20.7268 31.2106 25.4081V38.8589H31.2289Z" fill="#BFC0C0"/>
<path d="M43.0736 38.2931C36.2387 38.2931 30.6631 32.754 30.6174 25.9283C30.6083 25.9009 30.5992 25.8644 30.5992 25.837C30.5992 19.3033 25.2882 13.9923 18.7545 13.9923C12.2207 13.9923 6.90974 19.3033 6.90974 25.837C6.90974 32.3708 12.2207 37.6817 18.7545 37.6817C18.9187 37.6817 19.0556 37.8186 19.0556 37.9829C19.0556 38.1471 18.9187 38.2931 18.7545 38.2931C11.8831 38.2931 6.29834 32.7084 6.29834 25.837C6.29834 18.9656 11.8831 13.3809 18.7545 13.3809C25.6259 13.3809 31.165 18.92 31.2106 25.7458C31.2197 25.7731 31.2288 25.8096 31.2288 25.837C31.2288 32.3708 36.5398 37.6817 43.0736 37.6817C49.6073 37.6817 54.9183 32.3708 54.9183 25.837C54.9183 19.3033 49.6073 13.9923 43.0736 13.9923C42.9002 13.9923 42.7633 13.8554 42.7633 13.682C42.7633 13.5086 42.9002 13.3809 43.0736 13.3809C49.945 13.3809 55.5297 18.9656 55.5297 25.837C55.5297 32.7084 49.945 38.2931 43.0736 38.2931Z" fill="#E61673"/>
<path d="M43.8402 13.682C43.8402 14.1018 43.4934 14.4486 43.0737 14.4486C42.6539 14.4486 42.3071 14.1018 42.3071 13.682C42.3071 13.2623 42.6539 12.9155 43.0737 12.9155C43.4934 12.9155 43.8402 13.2623 43.8402 13.682Z" fill="#E61673"/>
<path d="M19.4662 37.992C19.4662 38.4118 19.1194 38.7585 18.6996 38.7585C18.2799 38.7585 17.9331 38.4118 17.9331 37.992C17.9331 37.5722 18.2799 37.2255 18.6996 37.2255C19.1194 37.2255 19.4662 37.5722 19.4662 37.992Z" fill="#E61673"/>
<path d="M67.6756 19.3033H68.7159C68.7981 19.3033 68.8711 19.3671 68.8711 19.4584V29.9161C68.8711 29.9982 68.8072 30.0712 68.7159 30.0712H67.6756C67.5935 30.0712 67.5205 30.0073 67.5205 29.9161V19.4584C67.5205 19.3763 67.5844 19.3124 67.6665 19.3124L67.6756 19.3033Z" fill="#818181"/>
<path d="M70.9699 23.7473L70.7052 23.0447C70.6687 22.9534 70.7782 22.8256 70.8604 22.7891C73.0596 22.2507 75.0945 21.4203 76.0527 20.5808C76.2352 20.4439 76.2717 20.3435 76.0071 20.3435H71.7273C71.6178 20.3435 71.5721 20.2979 71.5721 20.1884V19.3945C71.5721 19.3033 71.6178 19.2485 71.7273 19.2485H77.2207C77.8321 19.2485 78.2245 19.4584 78.2245 19.7778C78.2245 20.0242 78.0329 20.3253 77.9051 20.4987C77.5401 20.9641 77.0565 21.4021 76.436 21.7945C77.2664 22.0956 78.3888 22.488 79.2466 22.634C79.347 22.6705 79.4382 22.7526 79.3835 22.8804L79.1006 23.5831C79.0458 23.7108 78.9637 23.7564 78.8451 23.7291C77.9051 23.5466 76.4451 23.0082 75.2497 22.4698C74.0269 23.0812 72.5851 23.5557 71.2619 23.8751C71.125 23.9116 71.0064 23.8294 70.9699 23.7291M75.6968 26.0287V29.7974C75.6968 29.9069 75.6421 29.9617 75.5325 29.9617H74.5105C74.401 29.9617 74.3463 29.9069 74.3463 29.7974V26.0287H69.9113C69.8201 26.0287 69.7471 25.9374 69.7471 25.8553V25.0979C69.7471 25.0066 69.8109 24.9245 69.9113 24.9245H80.0952C80.1774 24.9245 80.2686 25.0157 80.2686 25.0979V25.8553C80.2686 25.9374 80.1774 26.0287 80.0952 26.0287H75.6877H75.6968Z" fill="#818181"/>
<path d="M82.5315 19.3033H81.5003C81.4147 19.3033 81.3452 19.3727 81.3452 19.4584V29.9069C81.3452 29.9926 81.4147 30.0621 81.5003 30.0621H82.5315C82.6172 30.0621 82.6866 29.9926 82.6866 29.9069V19.4584C82.6866 19.3727 82.6172 19.3033 82.5315 19.3033Z" fill="#818181"/>
<path d="M98.574 31.9693C98.4371 31.9693 98.3732 31.9054 98.3732 31.7685V17.3687C98.3732 17.2318 98.4553 17.1679 98.5922 17.1679H99.9336C100.071 17.1679 100.134 17.2318 100.134 17.3687V31.7685C100.134 31.9054 100.071 31.9693 99.9336 31.9693H98.574ZM90.6531 19.7504C89.5763 19.7504 89.0927 21.539 89.0927 23.0812C89.0927 24.6233 89.5763 26.4302 90.6531 26.4302C91.8121 26.4302 92.3231 24.6051 92.3231 23.0812C92.3231 21.5572 91.8394 19.7504 90.6531 19.7504ZM95.6447 31.4583C95.5078 31.4583 95.4257 31.3761 95.4257 31.2392V23.9116H94.0113C93.8105 26.4484 92.4235 27.945 90.644 27.945C88.6547 27.945 87.3589 26.1017 87.3589 23.072C87.3589 19.7687 88.7459 18.19 90.644 18.19C92.5421 18.19 93.8653 19.5496 94.0387 22.415H95.4257V17.6333C95.4257 17.4964 95.5078 17.4326 95.6447 17.4326H96.9223C97.0591 17.4326 97.123 17.4964 97.123 17.6333V31.2392C97.123 31.3761 97.0591 31.4583 96.9223 31.4583H95.6447Z" fill="#818181"/>
<path d="M114.115 31.7503C114.115 31.8963 114.051 31.951 113.914 31.951H112.527C112.381 31.951 112.326 31.8871 112.326 31.7503V17.3687C112.326 17.2318 112.39 17.1679 112.527 17.1679H113.914C114.051 17.1679 114.115 17.2318 114.115 17.3687V31.7503ZM106.413 19.6957C105.108 19.6957 104.341 21.3017 104.341 23.2272C104.341 25.1526 105.108 26.7861 106.413 26.7861C107.718 26.7861 108.484 25.1161 108.484 23.2272C108.484 21.3382 107.718 19.6957 106.413 19.6957ZM102.589 23.2272C102.589 20.1154 104.04 18.0987 106.422 18.0987C108.804 18.0987 110.255 20.1063 110.255 23.2272C110.255 26.348 108.822 28.3739 106.422 28.3739C104.022 28.3739 102.589 26.2842 102.589 23.2272Z" fill="#818181"/>
<path d="M126.169 19.8781H120.283V20.6721C120.283 20.9093 120.375 20.9549 120.585 20.9549H125.886C126.087 20.9549 126.178 20.9093 126.178 20.6721V19.8781H126.169ZM119.681 22.342C118.741 22.342 118.477 22.0774 118.477 21.2561V17.3413C118.477 17.2318 118.568 17.1588 118.677 17.1588H120.046C120.156 17.1588 120.265 17.2318 120.265 17.3413V18.5093H126.151V17.323C126.151 17.2135 126.242 17.1223 126.352 17.1223H127.739C127.848 17.1223 127.94 17.2135 127.94 17.323V21.3017C127.94 22.0044 127.675 22.342 126.753 22.342H119.663H119.681ZM119.48 31.7685C118.668 31.7685 118.44 31.5039 118.44 30.8286V29.04C118.44 28.3739 118.659 28.1001 119.471 28.1001H126.078C126.251 28.1001 126.261 28.1001 126.261 27.8993V27.4613C126.261 27.2332 126.242 27.2332 126.06 27.2332H118.632C118.522 27.2332 118.413 27.1419 118.413 27.0324V25.9921C118.413 25.8826 118.522 25.7914 118.632 25.7914H126.972C127.83 25.7914 128.031 26.0104 128.031 26.713V28.5016C128.031 29.2316 127.83 29.4233 126.972 29.4233H120.393C120.22 29.4233 120.21 29.4598 120.21 29.6423V30.1442C120.21 30.3267 120.229 30.3267 120.411 30.3267H128.168C128.277 30.3267 128.387 30.4179 128.387 30.5457V31.5586C128.387 31.6681 128.259 31.7776 128.186 31.7776H119.49L119.48 31.7685ZM116.442 24.7876C116.314 24.7876 116.223 24.6781 116.223 24.5503V23.5739C116.223 23.4279 116.296 23.3549 116.442 23.3549H129.993C130.102 23.3549 130.23 23.4644 130.23 23.5739V24.5503C130.23 24.6598 130.102 24.7876 129.993 24.7876H116.442Z" fill="#818181"/>
<path d="M69.5734 38.1289H71.6996L70.641 35.6924L69.5734 38.1289ZM72.8311 40.465C72.749 40.465 72.7216 40.465 72.6851 40.3829L72.0555 38.9593H69.2083L68.5787 40.3829C68.5513 40.4559 68.5239 40.465 68.4509 40.465H67.6479C67.5475 40.465 67.511 40.4285 67.5475 40.3555L70.1026 34.5974C70.1391 34.5152 70.13 34.5152 70.2395 34.5152H71.0517C71.1186 34.5152 71.1642 34.5426 71.1886 34.5974L73.7437 40.3555C73.771 40.4285 73.7437 40.465 73.6342 40.465H72.8311Z" fill="#818181"/>
<path d="M75.9342 38.2293C75.9342 39.2148 76.4361 39.7715 77.0384 39.7715C77.741 39.7715 78.1608 39.2604 78.1608 38.2293C78.1608 37.2711 77.7684 36.7145 77.0384 36.7145C76.3083 36.7145 75.9342 37.2164 75.9342 38.2293ZM75.9342 40.0543V40.3555C75.9342 40.4467 75.8886 40.4832 75.8064 40.4832H75.1403C75.0399 40.4832 75.0034 40.4467 75.0034 40.3555V34.1411C75.0034 34.0681 75.0399 34.0407 75.122 34.0407H75.843C75.9251 34.0407 75.9525 34.059 75.9525 34.1411V36.3951C76.2627 36.0848 76.6916 35.9114 77.157 35.9114C78.3889 35.9114 79.1555 36.824 79.1555 38.2384C79.1555 39.6528 78.4072 40.5836 77.157 40.5836C76.6916 40.5836 76.1897 40.3555 75.9525 40.0635" fill="#818181"/>
<path d="M80.8069 40.4741C80.743 40.4741 80.7065 40.4467 80.7065 40.3829V34.1594C80.7065 34.1046 80.7522 34.0681 80.816 34.0681H81.5461C81.61 34.0681 81.6465 34.1046 81.6465 34.1594V40.3829C81.6465 40.4376 81.6008 40.4741 81.5461 40.4741H80.8069Z" fill="#818181"/>
<path d="M84.0923 37.8186H86.0908C86.0908 37.3989 85.7988 36.7327 85.1509 36.7327C84.503 36.7327 84.1836 37.2802 84.0832 37.8186M86.9486 38.5943H84.0741C84.1379 39.2969 84.576 39.7988 85.3242 39.7988C85.7075 39.7988 86.2459 39.7258 86.6566 39.4977C86.7296 39.4612 86.7478 39.5251 86.7478 39.6072V40.1547C86.7478 40.246 86.7204 40.2916 86.62 40.3464C86.2733 40.5106 85.7714 40.5836 85.2877 40.5836C83.8459 40.5836 83.0977 39.7897 83.0977 38.2658C83.0977 37.1342 83.7364 35.9753 85.1326 35.9753C86.5288 35.9753 87.0946 37.0065 87.0946 38.2384C87.0946 38.3114 87.0854 38.43 87.0854 38.4665C87.0854 38.5578 87.0216 38.5943 86.9668 38.5943" fill="#818181"/>
<path d="M94.6953 40.5745C92.7151 40.5745 91.4102 39.3426 91.4102 37.481C91.4102 35.6194 92.6968 34.3966 94.6953 34.3966C95.2246 34.3966 95.7356 34.4331 96.1462 34.5517C96.274 34.5882 96.274 34.6247 96.2649 34.7251L96.2466 35.3091C96.2466 35.4734 96.1919 35.446 96.055 35.4004C95.617 35.2818 95.1607 35.2179 94.6862 35.2179C93.2444 35.2179 92.4048 36.1487 92.4048 37.4719C92.4048 38.795 93.3265 39.7441 94.677 39.7441C95.2793 39.7441 95.6808 39.7076 96.0367 39.5889C96.1827 39.5342 96.2192 39.5616 96.2192 39.6346L96.2557 40.1912C96.2649 40.3098 96.2557 40.3463 96.128 40.3828C95.7903 40.4741 95.3158 40.5562 94.6862 40.5562" fill="#818181"/>
<path d="M98.5742 38.2749C98.5742 39.0141 98.9757 39.808 99.8883 39.808C100.801 39.808 101.202 39.0141 101.202 38.2749C101.202 37.5357 100.801 36.751 99.8883 36.751C98.9757 36.751 98.5742 37.5449 98.5742 38.2749ZM99.8883 40.5836C98.3826 40.5836 97.6069 39.5433 97.6069 38.2749C97.6069 37.0065 98.3826 35.9753 99.8883 35.9753C101.394 35.9753 102.17 37.0065 102.17 38.2749C102.17 38.8954 101.978 39.4521 101.631 39.8536C101.211 40.3281 100.627 40.5836 99.8883 40.5836Z" fill="#818181"/>
<path d="M103.693 40.4376C103.693 40.0635 103.995 39.7715 104.369 39.7715C104.743 39.7715 105.035 40.0635 105.035 40.4376C105.035 40.8118 104.743 41.1129 104.369 41.1129C103.995 41.1129 103.693 40.8118 103.693 40.4376Z" fill="#818181"/>
<path d="M106.678 41.5783C106.614 41.5783 106.578 41.5418 106.605 41.4779L107.034 40.0452C107.061 39.9905 107.089 39.9174 107.216 39.9174H108.065C108.211 39.9174 108.202 40.0087 108.174 40.0726L107.572 41.487C107.536 41.5783 107.463 41.5874 107.381 41.5874H106.678V41.5783Z" fill="#818181"/>
<path d="M113.056 40.465C112.992 40.465 112.946 40.4285 112.946 40.3737V34.6065C112.946 34.5517 112.992 34.5152 113.056 34.5152H113.841C113.904 34.5152 113.941 34.5517 113.941 34.6065V39.6346H116.204C116.277 39.6346 116.304 39.662 116.304 39.735V40.3646C116.304 40.4194 116.259 40.4559 116.204 40.4559H113.047L113.056 40.465Z" fill="#818181"/>
<path d="M119.042 40.5836C118.549 40.5836 118.276 40.3737 118.13 40.1273C117.965 39.8536 117.956 39.5251 117.956 38.8954V36.9152H117.226C117.162 36.9152 117.117 36.8787 117.117 36.8239V36.2034C117.117 36.1487 117.162 36.1122 117.226 36.1122H117.956V35.008C117.956 34.9533 118.011 34.9167 118.066 34.9167H118.778C118.851 34.9167 118.887 34.9533 118.887 35.008V36.1122H119.727C119.79 36.1122 119.827 36.1487 119.827 36.2034V36.8239C119.827 36.8787 119.781 36.9152 119.727 36.9152H118.887V38.9502C118.887 39.3061 118.887 39.5342 118.914 39.6254C118.96 39.8079 119.161 39.8353 119.38 39.8079C119.526 39.7897 119.736 39.7532 119.873 39.6984C119.936 39.6711 119.946 39.6802 119.973 39.7714L120.046 40.2916C120.046 40.2916 120.037 40.3646 120 40.3828C119.836 40.4741 119.444 40.5745 119.042 40.5745" fill="#818181"/>
<path d="M122.026 38.2293C122.026 39.2604 122.446 39.7806 123.149 39.7806C123.751 39.7806 124.253 39.2239 124.253 38.2293C124.253 37.2346 123.842 36.7145 123.149 36.7145C122.455 36.7145 122.026 37.2711 122.026 38.2293ZM124.39 40.4741C124.299 40.4741 124.262 40.4376 124.262 40.3464V40.0452C124.025 40.3372 123.523 40.5654 123.058 40.5654C121.798 40.5654 121.059 39.6711 121.059 38.2201C121.059 36.7692 121.826 35.9023 123.058 35.9023C123.523 35.9023 123.952 36.0757 124.262 36.3859V34.132C124.262 34.0407 124.289 34.0316 124.362 34.0316H125.074C125.156 34.0316 125.193 34.0681 125.193 34.132V40.3464C125.193 40.4376 125.12 40.4741 125.056 40.4741H124.39Z" fill="#818181"/>
<path d="M127.045 40.4376C127.045 40.0635 127.347 39.7715 127.721 39.7715C128.095 39.7715 128.387 40.0635 128.387 40.4376C128.387 40.8118 128.095 41.1129 127.721 41.1129C127.347 41.1129 127.045 40.8118 127.045 40.4376Z" fill="#818181"/>
</g>
<defs>
<clipPath id="clip0_853_894">
<rect width="130" height="43.5736" fill="white" transform="translate(0.22998 0.769638)"/>
</clipPath>
</defs>
</svg>
