<svg width="151" height="53" viewBox="0 0 151 53" fill="none" xmlns="http://www.w3.org/2000/svg">
<g clip-path="url(#clip0_1_55)">
<path d="M31.2966 52.1146C27.1776 52.1146 23.8208 48.7578 23.8208 44.6388V28.4558C23.8208 27.5763 24.5391 26.8727 25.4039 26.8727C26.2688 26.8727 26.987 27.591 26.987 28.4558V44.6388C26.987 47.0134 28.9219 48.9484 31.2966 48.9484C33.6713 48.9484 35.5915 47.0134 35.5915 44.6388V40.6956C35.5915 39.8161 36.2951 39.1125 37.1747 39.1125C38.0542 39.1125 38.7578 39.8308 38.7578 40.6956V44.6388C38.7578 48.7578 35.401 52.1146 31.282 52.1146" fill="#F57E1F"/>
<path d="M37.1893 36.2102H32.2201C31.3406 36.2102 30.637 35.5065 30.637 34.627C30.637 33.7475 31.3552 33.0439 32.2201 33.0439H35.6062V30.0976C35.6062 27.7229 33.6713 25.788 31.3113 25.788C30.4318 25.788 29.7281 25.0844 29.7281 24.2049C29.7281 23.3254 30.4464 22.6218 31.3113 22.6218C35.4303 22.6218 38.7871 25.9785 38.7871 30.0976V34.6417C38.7871 35.5212 38.0688 36.2248 37.204 36.2248" fill="#F57E1F"/>
<path d="M13.6185 42.5426C12.739 42.5426 12.0354 41.839 12.0354 40.9595V20.9947C12.0354 18.62 10.1005 16.6997 7.72581 16.6997C6.71438 16.6997 5.76158 17.0369 4.98468 17.6819C3.98791 18.5027 3.41623 19.7194 3.41623 20.9947V40.9595C3.41623 41.839 2.71262 42.5426 1.83311 42.5426C0.953606 42.5426 0.25 41.839 0.25 40.9595V20.9947C0.25 18.7519 1.24678 16.6558 2.96181 15.2339C4.29573 14.1345 5.99612 13.5189 7.72581 13.5189C11.8448 13.5189 15.2016 16.8756 15.2016 20.9947V40.9595C15.2016 41.839 14.498 42.5426 13.6185 42.5426Z" fill="#5C8F3F"/>
<path d="M13.6185 42.5426C12.739 42.5426 12.0354 41.839 12.0354 40.9595V20.9947C12.0354 18.7519 13.0175 16.6558 14.7472 15.2339C16.0811 14.1345 17.7815 13.5189 19.5112 13.5189C23.6302 13.5189 26.987 16.8756 26.987 20.9947V21.1119C26.987 21.9914 26.2688 22.6951 25.4039 22.6951C24.5391 22.6951 23.8208 21.9768 23.8208 21.1119V20.9947C23.8208 18.62 21.8859 16.6997 19.5112 16.6997C18.4998 16.6997 17.547 17.0369 16.7701 17.6819C15.7733 18.5027 15.2016 19.7194 15.2016 20.9947V40.9595C15.2016 41.839 14.498 42.5426 13.6185 42.5426Z" fill="#5C8F3F"/>
<path d="M69.1447 42.5573C68.2652 42.5573 67.5616 41.839 67.5616 40.9742V24.63C67.5616 23.34 66.99 22.138 65.9932 21.3172C65.2163 20.6722 64.2635 20.335 63.252 20.335C60.8774 20.335 58.9571 22.27 58.9571 24.6446V31.9006C58.9571 32.7801 58.2389 33.4837 57.374 33.4837C56.5092 33.4837 55.7909 32.7801 55.7909 31.9006V24.6446C55.7909 20.5256 59.1477 17.1688 63.2667 17.1688C64.9964 17.1688 66.6968 17.7698 68.0307 18.8839C69.7604 20.3057 70.7425 22.4165 70.7425 24.6446V40.9888C70.7425 41.8683 70.0243 42.5719 69.1594 42.5719" fill="#7A5083"/>
<path d="M51.4667 45.3863C47.3476 45.3863 43.9908 42.0296 43.9908 37.9105C43.9908 37.031 44.6945 36.3274 45.574 36.3274C46.4535 36.3274 47.1571 37.0457 47.1571 37.9105C47.1571 40.2852 49.092 42.2055 51.452 42.2055C53.812 42.2055 55.7616 40.2705 55.7616 37.9105V24.6446C55.7616 23.7651 56.4652 23.0615 57.3447 23.0615C58.2242 23.0615 58.9278 23.7651 58.9278 24.6446V37.9105C58.9278 42.0296 55.571 45.3863 51.452 45.3863" fill="#7A5083"/>
<path d="M63.2521 3.93223C61.0679 3.93223 59.2796 5.72056 59.2796 7.90467C59.2796 10.0888 61.0679 11.8771 63.2521 11.8771C65.4362 11.8771 67.2245 10.0888 67.2245 7.90467C67.2245 5.72056 65.4362 3.93223 63.2521 3.93223ZM63.2521 15.058C59.3089 15.058 56.0987 11.8478 56.0987 7.90467C56.0987 3.96154 59.3089 0.751341 63.2521 0.751341C67.1952 0.751341 70.4054 3.96154 70.4054 7.90467C70.4054 11.8478 67.1952 15.058 63.2521 15.058Z" fill="#7A5083"/>
<path d="M44.1521 33.0293C43.2726 33.0293 42.569 32.311 42.569 31.4462C42.569 30.5813 43.2726 29.863 44.1521 29.863C45.1635 29.863 46.1163 29.5259 46.8932 28.8809C47.89 28.06 48.4617 26.8434 48.4617 25.5681V2.15855C48.4617 1.27905 49.1653 0.575439 50.0448 0.575439C50.9243 0.575439 51.6279 1.2937 51.6279 2.15855V25.5535C51.6279 27.7962 50.6311 29.8924 48.9161 31.3142C47.5822 32.4136 45.8818 33.0293 44.1521 33.0293Z" fill="#F05056"/>
<path d="M50.0448 20.1005H39.0509C38.1714 20.1005 37.4678 19.3969 37.4678 18.5174C37.4678 17.6379 38.1861 16.9343 39.0509 16.9343H50.0448C50.9243 16.9343 51.6279 17.6525 51.6279 18.5174C51.6279 19.3822 50.9243 20.1005 50.0448 20.1005Z" fill="#F05056"/>
<path d="M62.4019 10.2354L65.2016 7.90467L62.4019 5.58863V10.2354Z" fill="#7A5083"/>
<path d="M62.7097 6.26292V9.56107L64.7032 7.90467L62.7097 6.26292ZM62.4019 10.5578C62.4019 10.5578 62.3139 10.5578 62.2699 10.5285C62.1527 10.4699 62.094 10.3673 62.094 10.2354V5.58863C62.094 5.47136 62.1673 5.3541 62.2699 5.29546C62.3872 5.23683 62.5191 5.26615 62.6071 5.33944L65.4068 7.67013C65.4068 7.67013 65.5241 7.81672 65.5241 7.91933C65.5241 8.02194 65.4801 8.10989 65.4068 8.16852L62.6071 10.4992C62.6071 10.4992 62.4751 10.5725 62.4019 10.5725" fill="#7A5083"/>
<path d="M79.948 26.9607H80.9888L82.6892 29.6138L84.3895 26.9607H85.445V32.5602H84.4628V28.5438L82.7038 31.1823H82.6598L80.9155 28.5584V32.5602H79.948V26.9607Z" fill="#939598"/>
<path d="M87.673 26.9607H91.8214V27.8548H88.6552V29.2914H91.4549V30.1709H88.6552V31.666H91.8507V32.5602H87.673V26.9607Z" fill="#939598"/>
<path d="M95.9111 31.666C96.2043 31.666 96.4681 31.6221 96.7173 31.5194C96.9518 31.4315 97.1571 31.2996 97.333 31.1237C97.5089 30.9478 97.6261 30.7572 97.7287 30.5227C97.8167 30.2881 97.8753 30.0389 97.8753 29.7604C97.8753 29.4673 97.8313 29.2181 97.7287 28.9835C97.6408 28.749 97.5089 28.5438 97.333 28.3825C97.1717 28.2066 96.9665 28.0747 96.7173 27.9868C96.4828 27.8841 96.2043 27.8402 95.9111 27.8402H94.8117V31.666H95.9111ZM93.8296 26.9607H95.9111C96.3508 26.9607 96.7466 27.034 97.1131 27.1659C97.4795 27.3125 97.7874 27.503 98.0512 27.7522C98.3151 28.0014 98.5203 28.2946 98.6669 28.6317C98.8135 28.9689 98.8868 29.3353 98.8868 29.7311C98.8868 30.1416 98.8135 30.508 98.6669 30.8452C98.5203 31.1823 98.3151 31.4755 98.0512 31.7393C97.7874 31.9885 97.4795 32.1791 97.1131 32.3257C96.7466 32.4722 96.3508 32.5455 95.9111 32.5455H93.8296V26.946V26.9607Z" fill="#939598"/>
<path d="M101.921 26.9607H100.939V32.5602H101.921V26.9607Z" fill="#939598"/>
<path d="M106.817 32.6481C106.407 32.6481 106.025 32.5749 105.688 32.4283C105.336 32.2817 105.043 32.0765 104.779 31.8126C104.53 31.5488 104.325 31.2556 104.178 30.9038C104.032 30.552 103.959 30.1709 103.959 29.7751C103.959 29.3647 104.032 28.9835 104.178 28.6317C104.325 28.2799 104.516 27.9721 104.779 27.7082C105.029 27.4444 105.336 27.2392 105.688 27.0926C106.04 26.946 106.421 26.8581 106.861 26.8581C107.125 26.8581 107.345 26.8727 107.565 26.9167C107.77 26.9607 107.975 27.0193 108.151 27.0926C108.327 27.1659 108.488 27.2538 108.635 27.3711C108.781 27.4884 108.928 27.591 109.06 27.7229L108.429 28.4558C108.21 28.2506 107.975 28.0747 107.726 27.9574C107.477 27.8255 107.183 27.7669 106.876 27.7669C106.612 27.7669 106.363 27.8255 106.143 27.9281C105.923 28.0307 105.718 28.1773 105.556 28.3532C105.395 28.5291 105.263 28.7343 105.175 28.9835C105.087 29.2181 105.043 29.4819 105.043 29.7458C105.043 30.0389 105.087 30.2881 105.175 30.5373C105.263 30.7865 105.395 30.9917 105.556 31.1676C105.718 31.3435 105.923 31.4901 106.143 31.5927C106.363 31.6953 106.612 31.754 106.876 31.754C107.213 31.754 107.506 31.6953 107.755 31.5634C108.004 31.4315 108.239 31.2556 108.488 31.0357L109.118 31.6807C108.972 31.8273 108.825 31.9739 108.664 32.0911C108.503 32.2084 108.341 32.311 108.151 32.399C107.96 32.4869 107.77 32.5602 107.55 32.6042C107.33 32.6481 107.095 32.6775 106.832 32.6775" fill="#939598"/>
<path d="M111.933 26.9607H110.965V32.5602H111.933V26.9607Z" fill="#939598"/>
<path d="M115.612 27.8695H113.838V26.9607H118.382V27.8695H116.609V32.5602H115.612V27.8695Z" fill="#939598"/>
<path d="M121.871 30.3468L119.643 26.9607H120.801L122.37 29.4379L123.953 26.9607H125.081L122.853 30.3321V32.5602H121.871V30.3468Z" fill="#939598"/>
<path d="M82.7918 43.5834C82.3813 43.5834 82.0002 43.5101 81.6631 43.3635C81.3113 43.2169 81.0181 43.0117 80.7543 42.7478C80.5051 42.484 80.2998 42.1908 80.1533 41.839C80.0067 41.4872 79.9334 41.1061 79.9334 40.7103C79.9334 40.2999 80.0067 39.9187 80.1533 39.5669C80.2998 39.2151 80.4904 38.9073 80.7543 38.6435C81.0181 38.3796 81.3113 38.1744 81.6631 38.0278C82.0149 37.8812 82.4107 37.7933 82.8358 37.7933C83.0849 37.7933 83.3195 37.8079 83.5394 37.8519C83.7446 37.8959 83.9498 37.9545 84.1257 38.0278C84.3016 38.1011 84.4628 38.2037 84.6094 38.3063C84.756 38.4089 84.9026 38.5262 85.0345 38.6581L84.4042 39.391C84.1843 39.1858 83.9498 39.0099 83.7006 38.8926C83.4514 38.7607 83.1582 38.7021 82.8504 38.7021C82.5866 38.7021 82.3374 38.7607 82.1175 38.8633C81.8976 38.9659 81.6924 39.1125 81.5312 39.2884C81.3699 39.4643 81.238 39.6695 81.15 39.9187C81.0621 40.1533 81.0181 40.4171 81.0181 40.681C81.0181 40.9741 81.0621 41.2233 81.15 41.4725C81.238 41.7217 81.3699 41.9269 81.5312 42.1028C81.6924 42.2788 81.8976 42.4253 82.1175 42.5279C82.352 42.6306 82.5866 42.6892 82.8504 42.6892C83.1876 42.6892 83.4807 42.6306 83.7299 42.4986C83.9791 42.3667 84.2136 42.1908 84.4628 41.9709L85.0932 42.6159C84.9466 42.7771 84.8 42.9091 84.6387 43.0263C84.4775 43.1436 84.3163 43.2462 84.1257 43.3342C83.9498 43.4221 83.7446 43.4807 83.5247 43.5394C83.3048 43.5834 83.0703 43.6127 82.8064 43.6127" fill="#939598"/>
<path d="M89.5786 42.6745C89.8571 42.6745 90.1063 42.6306 90.3409 42.5133C90.5754 42.4107 90.766 42.2641 90.9419 42.0882C91.1031 41.9123 91.235 41.7071 91.323 41.4579C91.4109 41.2233 91.4549 40.9595 91.4549 40.6956C91.4549 40.4025 91.4109 40.1533 91.323 39.9041C91.235 39.6549 91.1031 39.4497 90.9272 39.2738C90.766 39.0979 90.5607 38.9513 90.3262 38.8487C90.0917 38.7461 89.8425 38.6874 89.564 38.6874C89.2855 38.6874 89.0363 38.7461 88.8017 38.8487C88.5672 38.9513 88.3766 39.0979 88.2007 39.2738C88.0395 39.4497 87.9076 39.6549 87.8196 39.9041C87.7317 40.1386 87.673 40.4025 87.673 40.6663C87.673 40.9595 87.717 41.2087 87.8196 41.4579C87.9076 41.7071 88.0395 41.9123 88.2154 42.0882C88.3766 42.2641 88.5818 42.4107 88.8164 42.5133C89.0509 42.6159 89.3001 42.6745 89.5786 42.6745ZM89.5493 43.5834C89.1242 43.5834 88.7284 43.5101 88.362 43.3635C88.0102 43.2169 87.7023 43.0117 87.4385 42.7478C87.1893 42.484 86.9841 42.1761 86.8375 41.839C86.6909 41.4872 86.6176 41.1207 86.6176 40.725C86.6176 40.3145 86.6909 39.9481 86.8375 39.5963C86.9841 39.2445 87.1893 38.9366 87.4385 38.6728C87.7023 38.4089 88.0102 38.2037 88.362 38.0425C88.7138 37.8812 89.1096 37.8079 89.5493 37.8079C89.9891 37.8079 90.3702 37.8812 90.7366 38.0425C91.0884 38.189 91.3963 38.3943 91.6601 38.6581C91.924 38.922 92.1145 39.2298 92.2611 39.5669C92.4077 39.9187 92.481 40.2852 92.481 40.681C92.481 41.0914 92.4077 41.4579 92.2611 41.8097C92.1145 42.1615 91.9093 42.4693 91.6601 42.7332C91.3963 42.997 91.0884 43.2022 90.7366 43.3635C90.3848 43.5247 89.9891 43.598 89.5493 43.598" fill="#939598"/>
<path d="M96.8932 40.6663C97.245 40.6663 97.5235 40.5784 97.7287 40.4171C97.934 40.2412 98.0366 40.0214 98.0366 39.7282C98.0366 39.4057 97.934 39.1712 97.7287 39.0246C97.5235 38.8633 97.245 38.79 96.8639 38.79H95.4274V40.681H96.8639L96.8932 40.6663ZM94.4746 37.8959H96.9665C97.3183 37.8959 97.6261 37.9398 97.9046 38.0425C98.1832 38.1451 98.403 38.277 98.5789 38.4529C98.7255 38.5995 98.8428 38.79 98.9161 38.9806C98.9894 39.1858 99.0333 39.4057 99.0333 39.6549C99.0333 39.9041 99.004 40.1093 98.9307 40.2852C98.8721 40.4758 98.7695 40.637 98.6522 40.7689C98.535 40.9155 98.3884 41.0328 98.2271 41.1354C98.0659 41.238 97.89 41.3113 97.6848 41.3699L99.1946 43.4807H98.0366L96.6587 41.5312H95.4274V43.4807H94.4599V37.8812L94.4746 37.8959Z" fill="#939598"/>
<path d="M103.182 40.7983C103.548 40.7983 103.856 40.7103 104.061 40.5197C104.281 40.3292 104.384 40.0946 104.384 39.8015C104.384 39.4497 104.281 39.2005 104.061 39.0392C103.841 38.8633 103.548 38.79 103.182 38.79H102.038V40.8129H103.182V40.7983ZM101.056 37.8959H103.255C103.577 37.8959 103.871 37.9398 104.135 38.0278C104.398 38.1158 104.618 38.2477 104.809 38.4089C104.999 38.5702 105.131 38.7754 105.234 38.9953C105.336 39.2298 105.38 39.479 105.38 39.7575C105.38 40.08 105.322 40.3585 105.205 40.6077C105.087 40.8422 104.926 41.0474 104.721 41.2087C104.516 41.3699 104.281 41.4872 104.003 41.5751C103.724 41.6631 103.446 41.6924 103.123 41.6924H102.009V43.4954H101.042V37.8959H101.056Z" fill="#939598"/>
<path d="M109.881 42.6745C110.159 42.6745 110.408 42.6306 110.643 42.5133C110.877 42.4107 111.068 42.2641 111.229 42.0882C111.39 41.9123 111.522 41.7071 111.61 41.4579C111.698 41.2233 111.742 40.9595 111.742 40.6956C111.742 40.4025 111.698 40.1533 111.61 39.9041C111.522 39.6549 111.39 39.4497 111.215 39.2738C111.053 39.0979 110.848 38.9513 110.614 38.8487C110.379 38.7461 110.13 38.6874 109.851 38.6874C109.573 38.6874 109.324 38.7461 109.089 38.8487C108.855 38.9513 108.664 39.0979 108.503 39.2738C108.341 39.4497 108.21 39.6549 108.122 39.9041C108.034 40.1386 107.99 40.4025 107.99 40.6663C107.99 40.9595 108.034 41.2087 108.122 41.4579C108.21 41.7071 108.341 41.9123 108.517 42.0882C108.679 42.2641 108.884 42.4107 109.118 42.5133C109.353 42.6159 109.602 42.6745 109.881 42.6745ZM109.866 43.5834C109.441 43.5834 109.045 43.5101 108.679 43.3635C108.327 43.2169 108.019 43.0117 107.755 42.7478C107.506 42.484 107.301 42.1761 107.154 41.839C107.008 41.4872 106.934 41.1207 106.934 40.725C106.934 40.3145 107.008 39.9481 107.154 39.5963C107.301 39.2445 107.506 38.9366 107.755 38.6728C108.019 38.4089 108.327 38.2037 108.679 38.0425C109.03 37.8812 109.426 37.8079 109.866 37.8079C110.306 37.8079 110.687 37.8812 111.053 38.0425C111.405 38.189 111.713 38.3943 111.977 38.6581C112.241 38.922 112.431 39.2298 112.578 39.5669C112.724 39.9187 112.798 40.2852 112.798 40.681C112.798 41.0914 112.724 41.4579 112.578 41.8097C112.431 42.1615 112.226 42.4693 111.977 42.7332C111.713 42.997 111.405 43.2022 111.053 43.3635C110.701 43.5247 110.306 43.598 109.866 43.598" fill="#939598"/>
<path d="M117.195 40.6663C117.547 40.6663 117.825 40.5784 118.031 40.4171C118.236 40.2412 118.339 40.0214 118.339 39.7282C118.339 39.4057 118.236 39.1712 118.031 39.0246C117.825 38.8633 117.547 38.79 117.166 38.79H115.729V40.681H117.181L117.195 40.6663ZM114.791 37.8959H117.283C117.635 37.8959 117.943 37.9398 118.221 38.0425C118.5 38.1451 118.72 38.277 118.896 38.4529C119.042 38.5995 119.159 38.79 119.233 38.9806C119.306 39.1858 119.35 39.4057 119.35 39.6549C119.35 39.9041 119.321 40.1093 119.247 40.2852C119.174 40.4758 119.086 40.637 118.969 40.7689C118.852 40.9155 118.705 41.0328 118.544 41.1354C118.383 41.238 118.207 41.3113 118.001 41.3699L119.511 43.4807H118.353L116.975 41.5312H115.744V43.4807H114.777V37.8812L114.791 37.8959Z" fill="#939598"/>
<path d="M123.777 39.0246L124.744 41.2673H122.824L123.777 39.0246ZM123.337 37.8519L120.874 43.4807H121.886L122.458 42.1322H125.096L125.668 43.4807H126.709L124.246 37.8519H123.337Z" fill="#939598"/>
<path d="M128.072 37.8959V38.8047H129.845V43.4807H130.842V38.8047H132.616V37.8959H128.072Z" fill="#939598"/>
<path d="M135.489 37.8959H134.507V43.4954H135.489V37.8959Z" fill="#939598"/>
<path d="M140.473 42.6745C140.751 42.6745 141.001 42.6306 141.235 42.5133C141.47 42.4107 141.66 42.2641 141.836 42.0882C141.997 41.9123 142.129 41.7071 142.217 41.4579C142.305 41.2233 142.364 40.9595 142.364 40.6956C142.364 40.4025 142.32 40.1533 142.217 39.9041C142.129 39.6549 141.997 39.4497 141.821 39.2738C141.66 39.0979 141.455 38.9513 141.22 38.8487C140.986 38.7461 140.737 38.6874 140.458 38.6874C140.18 38.6874 139.93 38.7461 139.696 38.8487C139.461 38.9513 139.271 39.0979 139.095 39.2738C138.934 39.4497 138.802 39.6549 138.714 39.9041C138.626 40.1386 138.567 40.4025 138.567 40.6663C138.567 40.9595 138.611 41.2087 138.714 41.4579C138.802 41.7071 138.934 41.9123 139.095 42.0882C139.256 42.2641 139.461 42.4107 139.696 42.5133C139.93 42.6159 140.18 42.6745 140.458 42.6745M140.458 43.5834C140.033 43.5834 139.637 43.5101 139.271 43.3635C138.919 43.2169 138.611 43.0117 138.347 42.7478C138.083 42.484 137.893 42.1761 137.746 41.839C137.6 41.4872 137.526 41.1207 137.526 40.725C137.526 40.3145 137.6 39.9481 137.746 39.5963C137.893 39.2445 138.098 38.9366 138.347 38.6728C138.611 38.4089 138.919 38.2037 139.271 38.0425C139.623 37.8812 140.018 37.8079 140.458 37.8079C140.898 37.8079 141.279 37.8812 141.645 38.0425C141.997 38.189 142.305 38.3943 142.569 38.6581C142.818 38.922 143.023 39.2298 143.17 39.5669C143.317 39.9187 143.39 40.2852 143.39 40.681C143.39 41.0914 143.317 41.4579 143.17 41.8097C143.023 42.1615 142.818 42.4693 142.569 42.7332C142.305 42.997 141.997 43.2022 141.645 43.3635C141.294 43.5247 140.898 43.598 140.458 43.598" fill="#939598"/>
<path d="M149.268 37.8959V41.7657L146.278 37.8959H145.369V43.4807H146.351V39.5083L149.429 43.4807H150.25V37.8959H149.268Z" fill="#939598"/>
</g>
<defs>
<clipPath id="clip0_1_55">
<rect width="150" height="51.5391" fill="white" transform="translate(0.25 0.575439)"/>
</clipPath>
</defs>
</svg>
